<?xml version="1.0" encoding="UTF-8"?>
<svg width="18px" height="15px" viewBox="0 0 18 15" version="1.1" xmlns="http://www.w3.org/2000/svg" xmlns:xlink="http://www.w3.org/1999/xlink">
    <!-- Generator: Sketch 48.1 (47250) - http://www.bohemiancoding.com/sketch -->
    <title>Page 1</title>
    <desc>Created with Sketch.</desc>
    <defs>
        <polygon id="path-1" points="17.5816703 0.044 4.86486486e-05 0.044 4.86486486e-05 14.49975 17.5816703 14.49975 17.5816703 0.044"></polygon>
    </defs>
    <g id="ESW-Products" stroke="none" stroke-width="1" fill="none" fill-rule="evenodd" transform="translate(-184.000000, -1419.000000)">
        <g id="Page-1" transform="translate(184.000000, 1419.000000)">
            <path d="M8.79095676,5.9211 C7.82382162,5.9211 7.03279459,6.7341 7.03279459,7.7281 C7.03279459,8.7221 7.82382162,9.5351 8.79095676,9.5351 C9.75809189,9.5351 10.5491189,8.7221 10.5491189,7.7281 C10.5491189,6.7341 9.75809189,5.9211 8.79095676,5.9211" id="Fill-1" fill="#039ED8"></path>
            <g id="Group-5" transform="translate(0.000000, 0.456250)">
                <mask id="mask-2" fill="white">
                    <use xlink:href="#path-1"></use>
                </mask>
                <g id="Clip-4"></g>
                <path d="M13.7666432,12.38575 L12.5270757,11.11175 C13.5467514,10.04575 14.0653459,8.66325 14.0653459,7.27175 C14.0653459,5.88025 13.5467514,4.49825 12.5183189,3.44075 L13.7578865,2.16725 C15.1380486,3.56725 15.8235081,5.41975 15.8235081,7.27175 C15.8235081,9.12425 15.1380486,10.97625 13.7666432,12.38575 Z M8.79085946,10.88575 C6.84831892,10.88575 5.27453514,9.26875 5.27453514,7.27175 C5.27453514,5.27525 6.84831892,3.65775 8.79085946,3.65775 C10.7338865,3.65775 12.3071838,5.27525 12.3071838,7.27175 C12.3071838,9.26875 10.7338865,10.88575 8.79085946,10.88575 Z M3.82431892,12.37675 C2.44367027,10.97625 1.75821081,9.12425 1.75821081,7.27175 C1.75821081,5.41975 2.44367027,3.56725 3.81507568,2.15775 L5.05464324,3.43175 C4.03496757,4.49825 3.51637297,5.88025 3.51637297,7.27175 C3.51637297,8.66325 4.03496757,10.04575 5.0634,11.10275 L3.82431892,12.37675 Z M15.8235081,0.04375 L1.75821081,0.04375 C0.791075676,0.04375 4.86486486e-05,0.85675 4.86486486e-05,1.85075 L4.86486486e-05,12.69275 C4.86486486e-05,13.68675 0.791075676,14.49975 1.75821081,14.49975 L15.8235081,14.49975 C16.7906432,14.49975 17.5816703,13.68675 17.5816703,12.69275 L17.5816703,1.85075 C17.5816703,0.85675 16.7906432,0.04375 15.8235081,0.04375 Z" id="Fill-3" fill="#039ED8" mask="url(#mask-2)"></path>
            </g>
        </g>
    </g>
</svg>