<?xml version="1.0" encoding="UTF-8"?>
<svg width="20px" height="18px" viewBox="0 0 20 18" version="1.1" xmlns="http://www.w3.org/2000/svg" xmlns:xlink="http://www.w3.org/1999/xlink">
    <!-- Generator: Sketch 48.1 (47250) - http://www.bohemiancoding.com/sketch -->
    <title>Fill 1</title>
    <desc>Created with Sketch.</desc>
    <defs></defs>
    <g id="ESW-Products" stroke="none" stroke-width="1" fill="none" fill-rule="evenodd" transform="translate(-183.000000, -1299.000000)">
        <path d="M191.837384,1312.21408 C191.453166,1312.25982 191.070645,1312.32336 190.684731,1312.34708 C187.460867,1312.54956 184.723,1310.91368 183.526244,1308.08075 C183.103859,1307.08109 182.930834,1306.05009 183.02498,1304.98351 C183.031765,1304.9115 183.019043,1304.82678 183.056362,1304.77002 C183.116581,1304.67684 183.209879,1304.60059 183.289606,1304.51757 C183.365093,1304.60313 183.482139,1304.67853 183.50928,1304.77511 C183.655164,1305.28934 183.739132,1305.82051 183.919791,1306.32457 C184.320971,1307.44368 184.944371,1308.4535 185.918061,1309.2634 C186.741626,1309.94875 187.706834,1310.31812 188.970596,1310.30287 C188.779759,1310.1741 188.674587,1310.09955 188.566023,1310.03093 C186.516015,1308.72375 185.437153,1306.95656 185.544021,1304.68277 C185.639015,1302.67075 186.529585,1300.9637 188.204706,1299.6057 C188.324296,1299.50912 188.449824,1299.41339 188.589771,1299.34392 C188.65508,1299.31088 188.80266,1299.31173 188.835738,1299.3507 C188.888324,1299.4117 188.906984,1299.52606 188.882387,1299.60231 C188.854398,1299.68957 188.759404,1299.75819 188.698336,1299.83782 C187.629652,1301.20684 186.948578,1302.69531 186.997771,1304.39812 C187.022368,1305.25714 187.327706,1306.034 187.948561,1306.70072 C188.051188,1306.81 188.141942,1306.9286 188.275103,1307.08787 C188.230999,1306.30424 188.1148,1305.61973 188.169083,1304.94539 C188.353134,1302.67244 189.677963,1301.0408 191.841625,1299.92847 C193.233459,1299.21346 194.736402,1298.90001 196.33858,1299.02793 C196.520935,1299.04233 196.692263,1299.17449 196.868681,1299.25158 C196.697352,1299.33291 196.535353,1299.46168 196.353847,1299.48963 C194.556591,1299.76751 192.951869,1300.39526 191.65927,1301.57705 C190.907798,1302.26411 190.467602,1303.09179 190.443005,1304.0745 C190.442157,1304.12279 190.441309,1304.17108 190.448094,1304.21937 C190.450639,1304.238 190.473539,1304.25495 190.491351,1304.27867 C190.830615,1303.90676 191.138498,1303.51113 191.509145,1303.17057 C193.664325,1301.19075 196.714316,1300.72819 199.65659,1301.91931 C200.739693,1302.35814 201.683697,1302.96895 202.430928,1303.8051 C202.539493,1303.92625 202.555608,1304.11432 202.614131,1304.27189 C202.441954,1304.22953 202.239243,1304.22614 202.100993,1304.13973 C200.478459,1303.12313 198.728701,1302.48267 196.708379,1302.62161 C195.867002,1302.67922 195.118923,1302.96048 194.459901,1303.43658 C194.336069,1303.52554 194.191034,1303.59077 194.056176,1303.66701 C194.093495,1303.70937 194.130814,1303.75088 194.168133,1303.79239 C194.34964,1303.76613 194.530298,1303.73733 194.711805,1303.71276 C197.894109,1303.28494 200.640458,1304.58195 202.126438,1307.21834 C202.798182,1308.41115 203.094191,1309.67342 202.973752,1311.01025 C202.968663,1311.0704 202.982233,1311.14156 202.9517,1311.18901 C202.883847,1311.29151 202.793093,1311.38131 202.71167,1311.47704 C202.634487,1311.38047 202.520833,1311.29321 202.486059,1311.18562 C202.242636,1310.44604 202.067067,1309.68613 201.77021,1308.96519 C201.427552,1308.12989 200.867765,1307.39963 200.143435,1306.7812 C199.374152,1306.12464 198.470011,1305.73834 197.400479,1305.69005 C197.313966,1305.68581 197.226606,1305.69598 197.067999,1305.7036 C197.168931,1305.78662 197.209642,1305.82983 197.260532,1305.85948 C201.116277,1308.13073 201.202789,1312.18866 199.106981,1315.01312 C198.694774,1315.56801 198.125657,1316.03226 197.604038,1316.51684 C197.506499,1316.60833 197.290218,1316.59647 197.128219,1316.6329 C197.168082,1316.49481 197.167234,1316.33046 197.253747,1316.22372 C198.17994,1315.07581 198.794857,1313.81437 198.972971,1312.39961 C199.116311,1311.26356 198.891548,1310.20545 198.052715,1309.30067 C197.951784,1309.19223 197.837282,1309.09396 197.657472,1308.92283 C197.71854,1309.30745 197.771974,1309.59718 197.810141,1309.8886 C198.180788,1312.76304 196.408129,1315.15968 193.587142,1316.33215 C192.344585,1316.84893 191.035022,1317.09037 189.663544,1316.96922 C189.479493,1316.95313 189.308164,1316.82182 189.131747,1316.74388 C189.302227,1316.66255 189.464226,1316.53293 189.645733,1316.50498 C191.245367,1316.26269 192.69742,1315.72558 193.932344,1314.76998 C194.885678,1314.0321 195.506533,1313.12309 195.555726,1311.95654 C195.558271,1311.89639 195.556574,1311.83539 195.550637,1311.77524 C195.548093,1311.75661 195.524344,1311.73966 195.498899,1311.70747 C195.233425,1312.0133 194.992547,1312.33183 194.708412,1312.61394 C192.436186,1314.86571 189.068983,1315.35622 185.940961,1313.90163 C185.008831,1313.46788 184.193747,1312.90198 183.540662,1312.16071 C183.441427,1312.04888 183.437186,1311.87013 183.388841,1311.72187 C183.551688,1311.7583 183.745917,1311.75576 183.872294,1311.83709 C185.25819,1312.73 186.773008,1313.31285 188.492232,1313.39333 C189.648277,1313.4484 190.706784,1313.20103 191.604139,1312.50381 C191.702526,1312.42756 191.841625,1312.39198 191.962064,1312.33692 C191.920504,1312.29625 191.878944,1312.25474 191.837384,1312.21408" id="Fill-1" fill="#009BDD"></path>
    </g>
</svg>