<?xml version="1.0" encoding="UTF-8"?>
<svg width="77px" height="77px" viewBox="0 0 77 77" version="1.1" xmlns="http://www.w3.org/2000/svg" xmlns:xlink="http://www.w3.org/1999/xlink">
    <!-- Generator: Sketch 48.2 (47327) - http://www.bohemiancoding.com/sketch -->
    <title>Page 1</title>
    <desc>Created with Sketch.</desc>
    <defs></defs>
    <g id="ESW-Product-Detail" stroke="none" stroke-width="1" fill="none" fill-rule="evenodd" transform="translate(-425.000000, -1877.000000)">
        <g id="Page-1" transform="translate(425.000000, 1877.000000)" fill="#039ED8">
            <path d="M75.7166667,77 L6.41666667,77 C2.87851667,77 0,74.1161429 0,70.5714286 C0,69.8617143 0.574933333,69.2857143 1.28333333,69.2857143 C1.99173333,69.2857143 2.56666667,69.8617143 2.56666667,70.5714286 C2.56666667,72.698 4.29403333,74.4285714 6.41666667,74.4285714 L74.4333333,74.4285714 L74.4333333,7.57142857 L11.55,7.57142857 C10.8416,7.57142857 10.2666667,6.99542857 10.2666667,6.28571429 C10.2666667,5.576 10.8416,5 11.55,5 L75.7166667,5 C76.42635,5 77,5.576 77,6.28571429 L77,75.7142857 C77,76.424 76.42635,77 75.7166667,77" id="Fill-1"></path>
            <path d="M10.8,72 C10.1376,72 9.6,71.424 9.6,70.7142857 C9.6,68.5877143 7.9848,66.8571429 6,66.8571429 C4.0152,66.8571429 2.4,68.5877143 2.4,70.7142857 C2.4,71.424 1.8624,72 1.2,72 C0.5376,72 0,71.424 0,70.7142857 L0,6.42857143 C0,2.88385714 2.6916,0 6,0 C9.3084,0 12,2.88385714 12,6.42857143 L12,70.7142857 C12,71.424 11.4624,72 10.8,72 M6,64.2857143 C7.35,64.2857143 8.5968,64.7665714 9.6,65.574 L9.6,6.42857143 C9.6,4.302 7.9848,2.57142857 6,2.57142857 C4.0152,2.57142857 2.4,4.302 2.4,6.42857143 L2.4,65.574 C3.4032,64.7665714 4.65,64.2857143 6,64.2857143" id="Fill-3"></path>
            <path d="M23,61 C22.448,61 22,60.4223158 22,59.7105263 L22,13.2894737 C22,12.5776842 22.448,12 23,12 C23.552,12 24,12.5776842 24,13.2894737 L24,59.7105263 C24,60.4223158 23.552,61 23,61" id="Fill-5"></path>
            <path d="M23.75,60 L21.25,60 C20.56,60 20,59.552 20,59 C20,58.448 20.56,58 21.25,58 L23.75,58 C24.44,58 25,58.448 25,59 C25,59.552 24.44,60 23.75,60" id="Fill-7"></path>
            <path d="M23.75,14 L21.25,14 C20.56,14 20,13.552 20,13 C20,12.448 20.56,12 21.25,12 L23.75,12 C24.44,12 25,12.448 25,13 C25,13.552 24.44,14 23.75,14" id="Fill-9"></path>
            <path d="M17,40 C16.448,40 16,39.4026667 16,38.6666667 L16,33.3333333 C16,32.5973333 16.448,32 17,32 C17.552,32 18,32.5973333 18,33.3333333 L18,38.6666667 C18,39.4026667 17.552,40 17,40" id="Fill-11"></path>
            <path d="M38.8,61 L29.2,61 C28.5376,61 28,60.4223158 28,59.7105263 L28,13.2894737 C28,12.5776842 28.5376,12 29.2,12 L38.8,12 C39.4624,12 40,12.5776842 40,13.2894737 L40,59.7105263 C40,60.4223158 39.4624,61 38.8,61 Z M30.4,58.4210526 L37.6,58.4210526 L37.6,14.5789474 L30.4,14.5789474 L30.4,58.4210526 Z" id="Fill-13"></path>
            <path d="M39.69974,25 C39.3669567,25 39.0341733,24.8726032 38.780686,24.6191095 L28.3812059,14.2193695 C27.8729314,13.7110822 27.8729314,12.8895028 28.3812059,12.3812155 C28.8894805,11.8729282 29.7110394,11.8729282 30.219314,12.3812155 L40.6187941,22.7809555 C41.1270686,23.2892428 41.1270686,24.1108222 40.6187941,24.6191095 C40.3653067,24.8726032 40.0325234,25 39.69974,25" id="Fill-15"></path>
            <path d="M39.69974,33 C39.3669567,33 39.0341733,32.8726032 38.780686,32.6191095 L28.3812059,22.2193695 C27.8729314,21.7110822 27.8729314,20.8895028 28.3812059,20.3812155 C28.8894805,19.8729282 29.7110394,19.8729282 30.219314,20.3812155 L40.6187941,30.7809555 C41.1270686,31.2892428 41.1270686,32.1108222 40.6187941,32.6191095 C40.3653067,32.8726032 40.0325234,33 39.69974,33" id="Fill-17"></path>
            <path d="M39.69974,43 C39.3669567,43 39.0341733,42.8726032 38.780686,42.6191095 L28.3812059,32.2193695 C27.8729314,31.7110822 27.8729314,30.8895028 28.3812059,30.3812155 C28.8894805,29.8729282 29.7110394,29.8729282 30.219314,30.3812155 L40.6187941,40.7809555 C41.1270686,41.2892428 41.1270686,42.1108222 40.6187941,42.6191095 C40.3653067,42.8726032 40.0325234,43 39.69974,43" id="Fill-19"></path>
            <path d="M39.69974,51 C39.3669567,51 39.0341733,50.8726032 38.780686,50.6191095 L28.3812059,40.2193695 C27.8729314,39.7110822 27.8729314,38.8895028 28.3812059,38.3812155 C28.8894805,37.8729282 29.7110394,37.8729282 30.219314,38.3812155 L40.6187941,48.7809555 C41.1270686,49.2892428 41.1270686,50.1108222 40.6187941,50.6191095 C40.3653067,50.8726032 40.0325234,51 39.69974,51" id="Fill-21"></path>
            <path d="M39.69974,60 C39.3669567,60 39.0341733,59.8726032 38.780686,59.6191095 L28.3812059,49.2193695 C27.8729314,48.7110822 27.8729314,47.8895028 28.3812059,47.3812155 C28.8894805,46.8729282 29.7110394,46.8729282 30.219314,47.3812155 L40.6187941,57.7809555 C41.1270686,58.2892428 41.1270686,59.1108222 40.6187941,59.6191095 C40.3653067,59.8726032 40.0325234,60 39.69974,60" id="Fill-23"></path>
            <path d="M69.7058824,42 L50.2941176,42 C49.5797647,42 49,41.4624 49,40.8 L49,31.2 C49,30.5376 49.5797647,30 50.2941176,30 L69.7058824,30 C70.4215294,30 71,30.5376 71,31.2 L71,40.8 C71,41.4624 70.4215294,42 69.7058824,42 Z M51.5882353,39.6 L68.4117647,39.6 L68.4117647,32.4 L51.5882353,32.4 L51.5882353,39.6 Z" id="Fill-25"></path>
            <path d="M50.30026,43 C49.9674766,43 49.6346933,42.8726032 49.3812059,42.6191095 C48.8729314,42.1108222 48.8729314,41.2892428 49.3812059,40.7809555 L59.780686,30.3812155 C60.2889606,29.8729282 61.1105195,29.8729282 61.6187941,30.3812155 C62.1270686,30.8895028 62.1270686,31.7110822 61.6187941,32.2193695 L51.219314,42.6191095 C50.9658267,42.8726032 50.6330433,43 50.30026,43" id="Fill-27"></path>
            <path d="M59.30026,43 C58.9674766,43 58.6346933,42.8726032 58.3812059,42.6191095 C57.8729314,42.1108222 57.8729314,41.2892428 58.3812059,40.7809555 L68.780686,30.3812155 C69.2889606,29.8729282 70.1105195,29.8729282 70.6187941,30.3812155 C71.1270686,30.8895028 71.1270686,31.7110822 70.6187941,32.2193695 L60.219314,42.6191095 C59.9658267,42.8726032 59.6330433,43 59.30026,43" id="Fill-29"></path>
            <path d="M69.7058824,48 L50.2941176,48 C49.5797647,48 49,47.552 49,47 C49,46.448 49.5797647,46 50.2941176,46 L69.7058824,46 C70.4215294,46 71,46.448 71,47 C71,47.552 70.4215294,48 69.7058824,48" id="Fill-31"></path>
            <path d="M50,50 C49.448,50 49,49.44 49,48.75 L49,46.25 C49,45.56 49.448,45 50,45 C50.552,45 51,45.56 51,46.25 L51,48.75 C51,49.44 50.552,50 50,50" id="Fill-33"></path>
            <path d="M69,50 C68.447,50 68,49.44 68,48.75 L68,46.25 C68,45.56 68.447,45 69,45 C69.553,45 70,45.56 70,46.25 L70,48.75 C70,49.44 69.553,50 69,50" id="Fill-35"></path>
            <path d="M61.6666667,53 L56.3333333,53 C55.5973333,53 55,52.552 55,52 C55,51.448 55.5973333,51 56.3333333,51 L61.6666667,51 C62.404,51 63,51.448 63,52 C63,52.552 62.404,53 61.6666667,53" id="Fill-37"></path>
        </g>
    </g>
</svg>