<?xml version="1.0" encoding="UTF-8"?>
<svg width="77px" height="77px" viewBox="0 0 77 77" version="1.1" xmlns="http://www.w3.org/2000/svg" xmlns:xlink="http://www.w3.org/1999/xlink">
    <!-- Generator: Sketch 48.2 (47327) - http://www.bohemiancoding.com/sketch -->
    <title>Page 1</title>
    <desc>Created with Sketch.</desc>
    <defs></defs>
    <g id="ESW-Product-Detail" stroke="none" stroke-width="1" fill="none" fill-rule="evenodd" transform="translate(-832.000000, -1881.000000)">
        <path d="M905.791667,1944.06934 L884.295833,1954.02555 L884.295833,1894.93066 L905.791667,1885.13504 L905.791667,1944.06934 Z M881.247917,1954.02555 L859.752083,1944.06934 L859.752083,1885.13504 L881.247917,1895.09124 L881.247917,1954.02555 Z M856.54375,1944.06934 L835.208333,1954.02555 L835.208333,1894.93066 L856.704167,1884.97445 L856.704167,1944.06934 L856.54375,1944.06934 Z M906.754167,1881.12044 L882.852083,1892.20073 L858.789583,1881.12044 L858.629167,1881.12044 C858.147917,1880.95985 857.827083,1880.95985 857.345833,1881.12044 L832.9625,1892.5219 C832.320833,1892.84307 832,1893.32482 832,1893.96715 L832,1956.43431 C832.320833,1957.71898 832.9625,1958.20073 834.245833,1957.87956 L858.147917,1946.79927 L882.210417,1957.87956 C882.53125,1958.04015 883.0125,1958.04015 883.333333,1957.87956 L908.0375,1946.4781 C908.51875,1946.15693 909,1945.67518 909,1945.03285 L909,1882.56569 C908.679167,1881.28102 908.0375,1880.79927 906.754167,1881.12044 Z" id="Page-1" fill="#039ED8"></path>
    </g>
</svg>