<?xml version="1.0" encoding="UTF-8"?>
<svg width="13px" height="19px" viewBox="0 0 13 19" version="1.1" xmlns="http://www.w3.org/2000/svg" xmlns:xlink="http://www.w3.org/1999/xlink">
    <!-- Generator: Sketch 48.1 (47250) - http://www.bohemiancoding.com/sketch -->
    <title>Page 1</title>
    <desc>Created with Sketch.</desc>
    <defs>
        <polygon id="path-1" points="0 19 0 0 13 0 13 19"></polygon>
    </defs>
    <g id="ESW-Products" stroke="none" stroke-width="1" fill="none" fill-rule="evenodd" transform="translate(-185.000000, -1387.000000)">
        <g id="Page-1" transform="translate(185.000000, 1387.000000)">
            <mask id="mask-2" fill="white">
                <use xlink:href="#path-1"></use>
            </mask>
            <g id="Clip-2"></g>
            <path d="M12.8844253,8.5999977 L5.06334495,18.7770063 C4.9536996,18.9209965 4.78405149,19 4.60792825,19 C4.54749381,19 4.48576434,18.991505 4.42619325,18.971117 C4.19308896,18.894662 4.03682276,18.6793138 4.03682276,18.4376311 L4.03682276,11.5528593 L0.571339079,11.5528593 C0.354206756,11.5528593 0.155204766,11.4318056 0.05894133,11.2402433 C-0.0368904309,11.0486811 -0.0144433518,10.8201656 0.115922377,10.6506904 L8.1895324,0.221805122 C8.3440719,0.0225973997 8.61343685,-0.0538575896 8.85258458,0.0395873973 C9.09000561,0.130483885 9.23677497,0.365795352 9.2126012,0.616397817 L8.51717342,7.69782883 L12.4281453,7.69782883 C12.6448459,7.69782883 12.8434162,7.81888256 12.9396797,8.00959528 C13.0372381,8.20115751 13.0147911,8.42967298 12.8844253,8.5999977" id="Fill-1" fill="#039ED8" mask="url(#mask-2)"></path>
        </g>
    </g>
</svg>