<?xml version="1.0" encoding="utf-8"?>
<!-- Generator: Adobe Illustrator 19.2.1, SVG Export Plug-In . SVG Version: 6.00 Build 0)  -->
<svg version="1.1" id="Layer_1" xmlns="http://www.w3.org/2000/svg" xmlns:xlink="http://www.w3.org/1999/xlink" x="0px" y="0px"
	 viewBox="0 0 222 42.5" style="enable-background:new 0 0 222 42.5;" xml:space="preserve">
<style type="text/css">
	.st0{fill:#FFFFFF;}
	.st1{fill:#009BDD;}
</style>
<rect x="83.2" y="8.6" class="st0" width="4.8" height="23.7"/>
<polygon class="st0" points="92.6,32.3 92.6,8.6 97.3,8.6 107,24.4 107,8.6 111.4,8.6 111.4,32.3 106.6,32.3 97,16.8 97,32.3 "/>
<g>
	<path class="st0" d="M121.2,12.6v15.7h3.6c1.3,0,2.3-0.1,2.9-0.2c0.8-0.2,1.4-0.5,1.9-1c0.5-0.5,0.9-1.2,1.3-2.3
		c0.3-1.1,0.5-2.5,0.5-4.3c0-1.8-0.1-3.2-0.5-4.2c-0.3-1-0.8-1.7-1.3-2.3c-0.6-0.5-1.3-0.9-2.2-1.1c-0.7-0.2-2-0.2-3.9-0.2H121.2z
		 M116.4,8.6h8.7c2,0,3.5,0.2,4.5,0.5c1.4,0.4,2.6,1.1,3.6,2.2c1,1.1,1.7,2.3,2.3,3.8c0.5,1.5,0.8,3.4,0.8,5.6c0,1.9-0.2,3.6-0.7,5
		c-0.6,1.7-1.5,3.1-2.5,4.2c-0.8,0.8-2,1.4-3.3,1.9c-1.1,0.4-2.5,0.5-4.2,0.5h-9V8.6z"/>
	<path class="st0" d="M144.3,20.4c0,2.7,0.6,4.7,1.8,6.1c1.2,1.4,2.8,2.1,4.7,2.1c1.9,0,3.5-0.7,4.7-2.1c1.2-1.4,1.8-3.4,1.8-6.2
		c0-2.7-0.6-4.7-1.8-6.1c-1.2-1.3-2.8-2-4.7-2c-2,0-3.6,0.7-4.8,2C144.9,15.7,144.3,17.7,144.3,20.4 M139.4,20.6
		c0-2.4,0.4-4.4,1.1-6.1c0.5-1.2,1.3-2.3,2.2-3.3c0.9-1,2-1.7,3.1-2.1c1.5-0.6,3.2-0.9,5.1-0.9c3.5,0,6.3,1.1,8.4,3.2
		c2.1,2.2,3.1,5.2,3.1,9c0,3.8-1,6.8-3.1,9c-2.1,2.2-4.9,3.2-8.3,3.2c-3.5,0-6.3-1.1-8.4-3.2C140.4,27.3,139.4,24.4,139.4,20.6"/>
</g>
<polygon class="st0" points="169.4,32.3 163.8,8.6 168.7,8.6 172.3,24.9 176.6,8.6 182.3,8.6 186.4,25.2 190.1,8.6 194.9,8.6 
	189.2,32.3 184.1,32.3 179.4,14.6 174.6,32.3 "/>
<g>
	<path class="st0" d="M196.1,24.6l4.7-0.4c0.3,1.6,0.9,2.7,1.7,3.4c0.9,0.7,2,1.1,3.5,1.1c1.5,0,2.7-0.3,3.5-1
		c0.8-0.7,1.2-1.4,1.2-2.3c0-0.6-0.2-1-0.5-1.4c-0.3-0.4-0.9-0.7-1.7-1c-0.6-0.2-1.8-0.5-3.8-1c-2.6-0.6-4.4-1.4-5.4-2.3
		c-1.5-1.3-2.2-2.9-2.2-4.8c0-1.2,0.3-2.3,1-3.4c0.7-1.1,1.7-1.9,3-2.4c1.3-0.5,2.8-0.8,4.7-0.8c3,0,5.2,0.6,6.7,1.9
		c1.5,1.3,2.3,3,2.4,5.2l-4.8,0.2c-0.2-1.2-0.6-2.1-1.3-2.6c-0.7-0.5-1.7-0.8-3-0.8c-1.4,0-2.5,0.3-3.3,0.9
		c-0.5,0.3-0.8,0.9-0.8,1.5c0,0.6,0.2,1,0.7,1.4c0.6,0.5,2.1,1,4.4,1.6c2.3,0.6,4.1,1.1,5.2,1.7c1.1,0.6,2,1.4,2.6,2.4
		c0.6,1,0.9,2.3,0.9,3.8c0,1.4-0.4,2.6-1.1,3.8c-0.7,1.2-1.8,2.1-3.2,2.7c-1.4,0.6-3.1,0.9-5.2,0.9c-3,0-5.3-0.7-6.9-2.1
		C197.4,29.3,196.4,27.2,196.1,24.6"/>
</g>
<polygon class="st1" points="8.3,32.3 8.3,8.6 25.8,8.6 25.8,12.6 13.1,12.6 13.1,17.9 24.9,17.9 24.9,21.9 13.1,21.9 13.1,28.3 
	26.3,28.3 26.3,32.3 "/>
<g>
	<path class="st1" d="M29.1,24.6l4.6-0.4c0.3,1.6,0.9,2.7,1.7,3.4c0.8,0.7,2,1.1,3.5,1.1c1.5,0,2.7-0.3,3.5-1
		c0.8-0.7,1.2-1.4,1.2-2.3c0-0.6-0.2-1-0.5-1.4c-0.3-0.4-0.9-0.7-1.7-1c-0.6-0.2-1.8-0.5-3.8-1c-2.6-0.6-4.4-1.4-5.4-2.3
		c-1.5-1.3-2.2-2.9-2.2-4.8c0-1.2,0.3-2.3,1-3.4c0.7-1.1,1.7-1.9,3-2.4c1.3-0.5,2.8-0.8,4.7-0.8c3,0,5.2,0.6,6.7,1.9
		c1.5,1.3,2.3,3,2.4,5.2l-4.8,0.2c-0.2-1.2-0.6-2.1-1.3-2.6c-0.7-0.5-1.7-0.8-3-0.8c-1.4,0-2.5,0.3-3.3,0.9
		c-0.5,0.3-0.7,0.9-0.7,1.5c0,0.6,0.2,1,0.7,1.4c0.6,0.5,2.1,1,4.4,1.6c2.3,0.6,4,1.1,5.2,1.7c1.1,0.6,2,1.4,2.6,2.4
		c0.6,1,0.9,2.3,0.9,3.8c0,1.4-0.4,2.6-1.1,3.8c-0.8,1.2-1.8,2.1-3.2,2.7c-1.4,0.6-3.1,0.9-5.2,0.9c-3,0-5.3-0.7-6.9-2.1
		C30.4,29.3,29.4,27.2,29.1,24.6"/>
</g>
<polygon class="st1" points="55.7,32.3 50.1,8.6 55,8.6 58.6,24.9 62.9,8.6 68.6,8.6 72.7,25.2 76.4,8.6 81.2,8.6 75.4,32.3 
	70.4,32.3 65.6,14.6 60.9,32.3 "/>
</svg>
