<?xml version="1.0" encoding="UTF-8"?>
<svg width="16px" height="18px" viewBox="0 0 16 18" version="1.1" xmlns="http://www.w3.org/2000/svg" xmlns:xlink="http://www.w3.org/1999/xlink">
    <!-- Generator: Sketch 48.1 (47250) - http://www.bohemiancoding.com/sketch -->
    <title>Page 1</title>
    <desc>Created with Sketch.</desc>
    <defs>
        <polygon id="path-1" points="0 9 0 18 16 18 16 9 16 0 0 0"></polygon>
    </defs>
    <g id="ESW-Products" stroke="none" stroke-width="1" fill="none" fill-rule="evenodd" transform="translate(-185.000000, -1448.000000)">
        <g id="Page-1" transform="translate(185.000000, 1448.000000)">
            <mask id="mask-2" fill="white">
                <use xlink:href="#path-1"></use>
            </mask>
            <g id="Clip-2"></g>
            <path d="M13.9232048,5.55215047 L11.0601417,5.55215047 C10.8685887,5.55215047 10.7130542,5.40220965 10.7130542,5.21754571 L10.7130542,1.85966066 C10.7130542,1.67499671 10.8685887,1.5250559 11.0601417,1.5250559 L13.9232048,1.5250559 C14.1151672,1.5250559 14.2702924,1.67499671 14.2702924,1.85966066 L14.2702924,5.21754571 C14.2702924,5.40220965 14.1151672,5.55215047 13.9232048,5.55215047 M13.9232048,10.5187426 L11.0601417,10.5187426 C10.8685887,10.5187426 10.7130542,10.3688018 10.7130542,10.1837433 L10.7130542,6.82625279 C10.7130542,6.64119427 10.8685887,6.49164803 11.0601417,6.49164803 L13.9232048,6.49164803 C14.1151672,6.49164803 14.2702924,6.64119427 14.2702924,6.82625279 L14.2702924,10.1837433 C14.2702924,10.3688018 14.1151672,10.5187426 13.9232048,10.5187426 M13.9232048,15.4849402 L11.0601417,15.4849402 C10.8685887,15.4849402 10.7130542,15.3349993 10.7130542,15.1503354 L10.7130542,11.7924503 C10.7130542,11.6077864 10.8685887,11.4578456 11.0601417,11.4578456 L13.9232048,11.4578456 C14.1151672,11.4578456 14.2702924,11.6077864 14.2702924,11.7924503 L14.2702924,15.1503354 C14.2702924,15.3349993 14.1151672,15.4849402 13.9232048,15.4849402 M9.3869177,5.55215047 L6.5238546,5.55215047 C6.33189225,5.55215047 6.17676703,5.40220965 6.17676703,5.21754571 L6.17676703,1.85966066 C6.17676703,1.67499671 6.33189225,1.5250559 6.5238546,1.5250559 L9.3869177,1.5250559 C9.57847075,1.5250559 9.73400527,1.67499671 9.73400527,1.85966066 L9.73400527,5.21754571 C9.73400527,5.40220965 9.57847075,5.55215047 9.3869177,5.55215047 M9.3869177,10.5187426 L6.5238546,10.5187426 C6.33189225,10.5187426 6.17676703,10.3688018 6.17676703,10.1837433 L6.17676703,6.82625279 C6.17676703,6.64119427 6.33189225,6.49164803 6.5238546,6.49164803 L9.3869177,6.49164803 C9.57847075,6.49164803 9.73400527,6.64119427 9.73400527,6.82625279 L9.73400527,10.1837433 C9.73400527,10.3688018 9.57847075,10.5187426 9.3869177,10.5187426 M9.3869177,15.4849402 L6.5238546,15.4849402 C6.33189225,15.4849402 6.17676703,15.3349993 6.17676703,15.1503354 L6.17676703,11.7924503 C6.17676703,11.6077864 6.33189225,11.4578456 6.5238546,11.4578456 L9.3869177,11.4578456 C9.57847075,11.4578456 9.73400527,11.6077864 9.73400527,11.7924503 L9.73400527,15.1503354 C9.73400527,15.3349993 9.57847075,15.4849402 9.3869177,15.4849402 M4.85063058,5.55215047 L1.98756747,5.55215047 C1.79560513,5.55215047 1.64047991,5.40220965 1.64047991,5.21754571 L1.64047991,1.85966066 C1.64047991,1.67499671 1.79560513,1.5250559 1.98756747,1.5250559 L4.85063058,1.5250559 C5.04218362,1.5250559 5.19771814,1.67499671 5.19771814,1.85966066 L5.19771814,5.21754571 C5.19771814,5.40220965 5.04218362,5.55215047 4.85063058,5.55215047 M4.85063058,10.5187426 L1.98756747,10.5187426 C1.79560513,10.5187426 1.64047991,10.3688018 1.64047991,10.1837433 L1.64047991,6.82625279 C1.64047991,6.64119427 1.79560513,6.49164803 1.98756747,6.49164803 L4.85063058,6.49164803 C5.04218362,6.49164803 5.19771814,6.64119427 5.19771814,6.82625279 L5.19771814,10.1837433 C5.19771814,10.3688018 5.04218362,10.5187426 4.85063058,10.5187426 M4.85063058,15.4849402 L1.98756747,15.4849402 C1.79560513,15.4849402 1.64047991,15.3349993 1.64047991,15.1503354 L1.64047991,11.7924503 C1.64047991,11.6077864 1.79560513,11.4578456 1.98756747,11.4578456 L4.85063058,11.4578456 C5.04218362,11.4578456 5.19771814,11.6077864 5.19771814,11.7924503 L5.19771814,15.1503354 C5.19771814,15.3349993 5.04218362,15.4849402 4.85063058,15.4849402 M15.350848,0 L0.649151979,0 C0.290603975,0 0,0.280152571 0,0.625805603 L0,17.3741944 C0,17.7198474 0.290603975,18 0.649151979,18 L15.350848,18 C15.709396,18 16,17.7198474 16,17.3741944 L16,0.625805603 C16,0.280152571 15.709396,0 15.350848,0" id="Fill-1" fill="#039ED8" mask="url(#mask-2)"></path>
        </g>
    </g>
</svg>