<?xml version="1.0" encoding="UTF-8"?>
<svg width="60px" height="87px" viewBox="0 0 60 87" version="1.1" xmlns="http://www.w3.org/2000/svg" xmlns:xlink="http://www.w3.org/1999/xlink">
    <!-- Generator: Sketch 48.2 (47327) - http://www.bohemiancoding.com/sketch -->
    <title>Page 1</title>
    <desc>Created with Sketch.</desc>
    <defs></defs>
    <g id="ESW-Product-Detail" stroke="none" stroke-width="1" fill="none" fill-rule="evenodd" transform="translate(-629.000000, -1879.000000)">
        <path d="M642.74761,1954.00231 L682.202677,1954.00231 L682.202677,1948.97535 L642.74761,1948.97535 L642.74761,1954.00231 Z M639.879541,1960.02509 L638.789675,1959.15375 L637.699809,1960.02509 L637.699809,1949.31048 L639.879541,1949.31048 L639.879541,1960.02509 Z M634.382409,1954.00231 C632.996176,1953.91613 631.942639,1952.72211 632.027725,1951.33371 C632.106119,1950.065 633.115679,1949.05386 634.382409,1948.97535 L634.860421,1948.97535 L634.860421,1954.00231 L634.382409,1954.00231 Z M631.868069,1882.35131 C631.868069,1882.08703 632.082218,1881.87255 632.34608,1881.87255 L635.65392,1881.87255 L635.65392,1946.1028 L634.382409,1946.1028 C633.505736,1946.09992 632.642447,1946.31441 631.868069,1946.72518 L631.868069,1882.35131 Z M686.131931,1882.35131 L686.131931,1946.1028 L638.512428,1946.1028 L638.512428,1881.87243 L685.65392,1881.87255 C685.913002,1881.86681 686.126195,1882.07267 686.131931,1882.33216 C686.131931,1882.33886 686.131931,1882.34461 686.131931,1882.35131 Z M689,1948.97535 L689,1882.35131 C689,1880.50043 687.501912,1879 685.65392,1879 L632.34608,1879 C630.498088,1879 629,1880.50043 629,1882.35131 L629,1951.48404 C629.005736,1954.45426 631.407266,1956.85954 634.372849,1956.86529 L634.85086,1956.86529 L634.85086,1965.99042 L638.808795,1962.82104 L642.74761,1966 L642.74761,1956.87486 L688.713193,1956.87486 L688.713193,1954.00231 L685.070746,1954.00231 L685.070746,1948.97535 L689,1948.97535 Z" id="Page-1" fill="#039ED8"></path>
    </g>
</svg>