<?xml version="1.0" encoding="utf-8"?>
<!-- Generator: Adobe Illustrator 16.0.0, SVG Export Plug-In . SVG Version: 6.00 Build 0)  -->
<!DOCTYPE svg PUBLIC "-//W3C//DTD SVG 1.0//EN" "http://www.w3.org/TR/2001/REC-SVG-20010904/DTD/svg10.dtd" [
	<!ENTITY ns_flows "http://ns.adobe.com/Flows/1.0/">
	<!ENTITY ns_extend "http://ns.adobe.com/Extensibility/1.0/">
	<!ENTITY ns_ai "http://ns.adobe.com/AdobeIllustrator/10.0/">
	<!ENTITY ns_graphs "http://ns.adobe.com/Graphs/1.0/">
	<!ENTITY ns_vars "http://ns.adobe.com/Variables/1.0/">
	<!ENTITY ns_imrep "http://ns.adobe.com/ImageReplacement/1.0/">
	<!ENTITY ns_sfw "http://ns.adobe.com/SaveForWeb/1.0/">
	<!ENTITY ns_custom "http://ns.adobe.com/GenericCustomNamespace/1.0/">
	<!ENTITY ns_adobe_xpath "http://ns.adobe.com/XPath/1.0/">
	<!ENTITY st0 "fill:#FFFFFF;">
	<!ENTITY st1 "fill:#009AD8;">
]>
<svg version="1.0" id="Layer_1" xmlns:x="&ns_extend;" xmlns:i="&ns_ai;" xmlns:graph="&ns_graphs;"
	 xmlns="http://www.w3.org/2000/svg" xmlns:xlink="http://www.w3.org/1999/xlink" xmlns:a="http://ns.adobe.com/AdobeSVGViewerExtensions/3.0/"
	 x="0px" y="0px" width="473px" height="123px" viewBox="0 0 473 123" style="enable-background:new 0 0 473 123;"
	 xml:space="preserve">
<metadata>
	<sfw  xmlns="&ns_sfw;">
		<slices></slices>
		<sliceSourceBounds  width="473" height="123" x="244.091" y="-344.159" bottomLeftOrigin="true"></sliceSourceBounds>
	</sfw>
</metadata>
<g>
	<polygon style="&st0;" points="0,55.064 11.304,55.064 11.304,80.86 17.301,80.86 17.301,55.064 28.988,55.064 28.988,48.693 
		0,48.693 	"/>
	<rect x="32.738" y="48.691" style="&st0;" width="28.984" height="6.372"/>
	<polygon style="&st0;" points="65.112,51.876 65.112,55.062 65.112,74.494 65.112,80.859 71.101,80.859 94.088,80.859 
		94.088,74.494 71.101,74.494 71.101,55.062 94.088,55.062 94.088,48.691 65.112,48.691 	"/>
	<path style="&st0;" d="M133.057,50.266v4.796v19.432v4.749v1.616h28.999v-1.616v-4.749V55.062v-4.796v-1.575h-28.999V50.266z
		 M156.043,74.494h-16.982V55.066h16.982V74.494z"/>
	<rect x="32.738" y="61.563" style="&st0;" width="28.984" height="6.371"/>
	<rect x="32.738" y="74.491" style="&st0;" width="28.984" height="6.368"/>
	<polygon style="&st0;" points="270.03,48.692 270.03,55.063 270.03,61.564 270.03,66.349 270.03,67.936 293.02,67.936 
		293.02,74.492 270.03,74.492 270.03,80.86 293.02,80.86 299.012,80.86 299.012,74.492 299.012,67.936 299.012,63.205 
		299.012,61.564 298.839,61.564 293.195,61.564 275.674,61.564 275.674,55.063 299.012,55.063 299.012,48.692 275.674,48.692 	"/>
	<polygon style="&st0;" points="333.344,55.064 333.344,48.693 310.005,48.693 304.368,48.693 304.368,55.064 304.368,61.564 
		304.368,66.349 304.368,67.936 327.522,67.936 327.522,74.492 304.368,74.492 304.368,80.86 333.344,80.86 333.344,74.492 
		333.167,74.492 333.167,67.936 333.344,67.936 333.344,61.564 333.167,61.564 327.522,61.564 310.005,61.564 310.005,55.064 	"/>
	<polygon style="&st0;" points="208.081,48.692 202.076,48.692 202.076,74.492 202.076,79.244 202.076,80.86 231.061,80.86 
		231.061,74.492 208.081,74.492 	"/>
	<path style="&st0;" d="M235.022,48.691v6.372h22.984v6.529h-22.984v1.438v4.935v6.53v4.749v1.616h28.972v-1.616v-4.749v-6.53
		v-6.372v-6.529v-6.372h-5.987H235.022z M258.007,74.494h-17.363v-6.53h17.363V74.494z"/>
	<polygon style="&st0;" points="167.927,50.267 167.927,55.064 167.927,74.492 167.927,79.241 167.927,80.86 196.905,80.86 
		196.905,79.241 196.905,74.492 196.905,61.564 190.915,61.564 190.915,74.492 173.925,74.492 173.925,55.064 196.905,55.064 
		196.905,48.693 167.927,48.693 	"/>
	<polygon style="&st0;" points="98.549,51.876 98.549,55.062 98.549,80.859 104.547,80.859 104.547,55.062 121.533,55.062 
		121.533,80.859 127.532,80.859 127.532,55.062 127.532,51.876 127.532,48.691 98.549,48.691 	"/>
	<rect x="349.383" style="&st1;" width="123.617" height="123"/>
	<path style="&st0;" d="M408.603,21.074c-0.079-0.007-0.149,0.003-0.229,0.025l-21.144,6.234c-0.015,0.01-0.024,0.019-0.034,0.019
		c-0.044,0.014-0.073,0.031-0.112,0.057c-0.037,0.02-0.076,0.049-0.12,0.073c-0.025,0.032-0.053,0.056-0.068,0.088
		c-0.038,0.036-0.063,0.075-0.082,0.121c-0.026,0.034-0.026,0.07-0.053,0.106c-0.01,0.046-0.022,0.098-0.022,0.15
		c-0.006,0.024-0.021,0.041-0.021,0.065v9.376c-18.573,5.88-29.148,14.907-30.625,26.157c-0.006,0.063-0.125,0.861-0.006,2.099
		v19.838c0,0.032,0,0.068,0.006,0.094c0.053,0.434,1.561,10.77,14.654,16.284c0.017,0,0.026,0,0.032,0
		c0.075,0.029,0.156,0.052,0.243,0.052l0.003,0.006c0.08,0,0.164-0.022,0.236-0.055c0.016,0,0.02,0,0.025-0.003l31.859-12.744
		c0.263-0.107,0.439-0.362,0.439-0.651V68.539c0-0.228-0.11-0.449-0.293-0.584c-0.195-0.122-0.434-0.155-0.654-0.08l-0.111,0.043
		c-0.087-0.049-0.184-0.082-0.279-0.085c-4.803-0.271-8.291-0.977-10.813-1.873c1.019-0.92,4.139-3.473,9.819-5.945
		c6.553-2.845,17.929-6.168,34.955-5.812c0.156,0,0.313-0.064,0.444-0.156c4.889,6.216,7.118,12.657,7.406,13.516l-0.011,5.167
		l21.711-8.687c0.28-0.105,0.456-0.363,0.456-0.655V45.625C466.188,44.72,465.282,23.513,408.603,21.074 M464.794,56.697
		c-0.889-2.193-2.56-5.311-5.65-8.73l5.65-2.048V56.697z M464.601,44.49l-6.526,2.354c-0.321-0.334-0.652-0.672-1.008-1.011
		c-12.556-11.918-33.046-16.08-48.143-17.464v-5.869c28.644,1.283,42.33,7.52,48.767,12.549
		C462.665,38.931,464.147,42.678,464.601,44.49 M445.426,50.535c-1.681-4.596-4.781-8.266-8.691-11.229c0,0-0.006-0.014-0.014-0.017
		c-0.026-0.029-0.055-0.039-0.091-0.06c-4.83-3.631-10.879-6.161-17.081-7.922h-0.01c-3.056-0.869-6.151-1.552-9.15-2.088
		c14.79,1.514,34.151,5.732,46.147,17.082c0.288,0.274,0.551,0.544,0.813,0.812l-11.88,4.286v-0.621
		C445.47,50.7,445.458,50.618,445.426,50.535 M390.156,36.321h0.108c-0.108,0.035-0.218,0.065-0.322,0.1L390.156,36.321z
		 M391.72,35.664l13.686-5.786c3.109,0.417,6.423,0.989,9.774,1.761c-4.87,0.525-13.504,1.689-22.625,4.066
		C392.248,35.686,391.974,35.674,391.72,35.664 M419.245,32.691c0.162,0.05,0.327,0.099,0.499,0.145v7.533
		c-0.812,0.104-1.62,0.213-2.454,0.338c-7.592-2.796-14.994-4.057-20.156-4.624C408.473,33.505,418.104,32.771,419.245,32.691
		 M435.523,40.51v10.918c-4.646-4.265-10.062-7.382-15.521-9.654C427.359,40.818,433.487,40.572,435.523,40.51 M420.449,40.273
		v-7.228c5.426,1.642,9.985,3.677,13.657,6.106C431.396,39.257,426.336,39.545,420.449,40.273 M408.224,22.616v6.241
		c-6.391-1.008-12.195-1.375-16.078-1.5L408.224,22.616z M404.017,29.698l-15.879,6.717v-7.703h0.459
		C390.836,28.712,396.794,28.807,404.017,29.698 M357.499,63.752c1.982-15.257,21.068-23.167,37.529-27.172
		c4.837,0.414,12.659,1.499,20.825,4.346c-1.068,0.171-2.136,0.348-3.222,0.552c-5.133,0.944-9.601,2.097-13.42,3.467
		c-25.422,6.234-35.992,18.261-40.184,25.48c-1.019-1.82-1.395-3.479-1.529-4.689v-0.297c0-0.073-0.025-0.147-0.035-0.211
		C357.408,64.388,357.474,63.841,357.499,63.752 M402.178,69.549v18.437l-1.258,0.498c-3.2-0.159-13.619-1.219-16.538-8.36v-4.068
		L402.178,69.549z M383.705,80.32c1.481,3.714,5.115,6.437,10.477,7.86c1.984,0.521,3.837,0.774,5.23,0.91l-27.686,11.068V80.685
		l11.953-4.367v3.881C383.68,80.241,383.692,80.286,383.705,80.32 M384.471,62.761c1.003,1.559,2.601,2.835,4.773,3.838
		c-2.527,2.666-4.058,5.406-4.862,7.092V62.615C384.421,62.663,384.441,62.714,384.471,62.761 M383.656,56.897
		c-0.039,0.102-0.744,1.95,0.023,4.227v13.688l-12.643,4.632c-6.378-2.352-9.798-5.485-11.603-8.336
		c3.68-6.544,12.88-17.517,34.77-24.075C388.722,49.723,385.187,53.013,383.656,56.897 M358.262,71.826
		c-0.297,0.564-0.549,1.099-0.763,1.574v-2.913C357.713,70.923,357.965,71.366,358.262,71.826 M359.717,91.007
		c-1.735-2.878-2.168-5.241-2.218-5.582V75.284c0.24-0.681,0.626-1.641,1.193-2.795c1.95,2.757,5.434,5.871,11.626,8.189v19.438
		C364.509,97.43,361.357,93.713,359.717,91.007 M399.475,69.027l-14.637,5.367c0.716-1.602,2.294-4.6,5.104-7.493
		C392.439,67.938,395.616,68.646,399.475,69.027 M390.037,65.342c-0.012,0.01-0.024,0.026-0.038,0.039
		c-2.315-1.044-3.606-2.263-4.324-3.355c-1.53-2.345-0.742-4.527-0.706-4.613c3.718-9.422,20.333-13.605,33.65-15.455
		c5.938,2.359,11.903,5.702,16.904,10.444v0.372C402.788,52.298,390.539,64.804,390.037,65.342 M436.931,52.157V41.245
		c3.378,2.792,5.764,6.011,7.128,9.659v12.783C442.759,60.745,440.463,56.367,436.931,52.157 M445.47,70.612V52.909l12.948-4.682
		c4.203,4.586,5.813,8.714,6.376,10.624v4.055L445.47,70.612z"/>
</g>
</svg>
