<?xml version="1.0" encoding="utf-8"?>
<!-- Generator: Adobe Illustrator 19.2.1, SVG Export Plug-In . SVG Version: 6.00 Build 0)  -->
<svg version="1.1" id="Capa_1" xmlns="http://www.w3.org/2000/svg" xmlns:xlink="http://www.w3.org/1999/xlink" x="0px" y="0px"
	 viewBox="0 0 502.9 384.2" style="enable-background:new 0 0 502.9 384.2;" xml:space="preserve">
<style type="text/css">
	.st0{fill:#0097DC;}
	.st1{fill:#FFFFFF;}
</style>
<path class="st0" d="M365.6,23.6c-1.2,3-76.8,187.8-79.3,193.7c4.7,3.3,45.3,34.3,47.3,35.7c1.1,0,12.5,0,25.3,0
	c15.5,0,32.9,0,35.9,0c1.5-5.8,53.3-208.6,54.3-212.4C446.9,37.8,421,4.3,417.7,0C412.7,2.3,368.4,22.4,365.6,23.6"/>
<path class="st0" d="M281.3,61.7c-1.3,2.5-82.6,156.7-85.9,163c5.4,3.4,39.7,27.1,41.5,28.2c2.1,0,35.2,0,39.7,0
	c1.5-3.6,8.4-20.5,10.4-25.2c-2.7-1.8-8.7-6.6-8.7-6.6s61.1-149.1,63.1-154c-2.9-3.8-16.2-21-18.7-24.2
	C318.5,44.8,283.6,60.8,281.3,61.7"/>
<path class="st0" d="M222,88.6c-1.3,2.1-82.7,135.8-86.8,142.6c6,3.4,36.8,20.8,38.4,21.8c1.9,0,25.7,0,29.4,0
	c0.9-2.3,4.1-10,4.6-11.2c-4.7-3-19.5-12.4-19.5-12.4s71.3-136.2,74.4-142c-2.7-3.4-7.9-10.1-9.9-12.7C249.1,76.2,224,87.8,222,88.6
	"/>
<path class="st0" d="M179.6,107.8c-1.3,2-78.7,120.2-83.2,127.1c6,3.3,31.5,17.3,33.2,18.2c1.7,0,17.8,0,21.5,0
	c0.5-1.6,1.1-2.8,2.1-5c-4.9-2.9-23.3-13.6-23.3-13.6s74-122.3,77.5-128c-2.2-2.8-4.6-6-6.4-8.3C197.5,99.5,181.5,107,179.6,107.8"
	/>
<path class="st1" d="M330.2,382.2h1.3c0.4,0,0.8-0.1,0.9-0.3c0.2-0.2,0.3-0.4,0.3-0.6c0-0.3-0.1-0.5-0.3-0.6s-0.5-0.3-0.9-0.3h-1.3
	V382.2z M330.2,378.8h1.1c0.4,0,0.7-0.1,0.8-0.2c0.2-0.1,0.3-0.3,0.3-0.6c0-0.2-0.1-0.5-0.3-0.6c-0.1-0.1-0.4-0.2-0.8-0.2h-1.2v1.6
	L330.2,378.8L330.2,378.8z M327.6,375.5h4.8c0.8,0,1.4,0.2,1.9,0.6c0.4,0.4,0.6,0.9,0.6,1.5c0,0.5-0.2,0.9-0.5,1.3
	c-0.2,0.2-0.5,0.4-0.9,0.6c0.6,0.2,1.1,0.4,1.3,0.8c0.3,0.3,0.4,0.8,0.4,1.4c0,0.5-0.1,0.8-0.3,1.2s-0.5,0.6-0.8,0.8
	c-0.2,0.2-0.6,0.2-1,0.3c-0.6,0.1-1,0.2-1.2,0.2h-4.4v-8.7L327.6,375.5L327.6,375.5z M334.7,375.5h2.8l1.7,2.9l1.7-2.9h2.9l-3.3,4.9
	v3.7h-2.6v-3.7L334.7,375.5z M355.5,371h4.9v-3.2h-13.2v3.2h5.1v13.1h3.2V371z M363.1,367.8h13v3.1h-13V367.8z M363.1,374h13v3.1
	h-13V374z M363.1,381h13v3.1h-13V381z M391.8,371v-3.2h-13.1v16.3h13.1v-3.2h-9.9V371H391.8z M394.4,384.1h3.2V371h6.7v13.1h3.2
	v-16.3h-13.1L394.4,384.1L394.4,384.1z M413.3,371h6.7v9.9h-6.7V371z M410.1,384.1h13.1v-16.3h-13.1V384.1z M435.7,380.8H429v-9.7
	h9.9v-3.3h-13.1v16.3h13.1v-9.7h-3.2L435.7,380.8L435.7,380.8z M444.7,367.8h-3.3v16.3h13.1v-3.3h-9.8L444.7,367.8L444.7,367.8z
	 M460.4,377.1h7.3v3.7h-7.3V377.1z M457.1,367.8v3.3h10.5v2.7h-10.5v10.3h13.1h0.7v-16.3h-3.2H457.1z M502.9,371v-3.2h-13.4v10h2.9
	h7.2v3.1h-10.1v3.2h13.4v-9.4h-10.2V371H502.9z M486.9,371v-3.2h-13.4v10h2.9h7.3v3.1h-10.2v3.2h13.4v-9.4h-10.2V371H486.9z
	 M502.9,299.9v-12.7h-52.7v39.9h11.5h28.5V339h-40v12.6h52.7v-37.1h-40v-14.6H502.9z M13,338.7h38.7V326H13V338.7z M0,313h51.7
	v-12.8H0v-13h64.6v64.4H0V313z M136.3,338.7v12.9H71.7v-64.4h13v51.5H136.3z M156.4,287.2v51.5h38.7v-51.5h13v51.5v12.9h-13h-38.7
	h-12.9v-12.8v-51.6H156.4z M279.6,287.2v13h-25.8v51.4h-13v-51.4H215v-13H279.6z M286.6,287.2h13v64.4h-13V287.2z M319.6,338.7h38.7
	v-38.5h-38.7V338.7z M306.7,287.2h64.6v64.4h-64.6V287.2z M430.1,351.6v-51.4h-38.7v51.4h-12.9v-64.4h51.6h13v12.9v51.5H430.1z"/>
</svg>
