<?xml version="1.0" encoding="utf-8"?>
<!-- Generator: Adobe Illustrator 16.0.0, SVG Export Plug-In . SVG Version: 6.00 Build 0)  -->
<!DOCTYPE svg PUBLIC "-//W3C//DTD SVG 1.1//EN" "http://www.w3.org/Graphics/SVG/1.1/DTD/svg11.dtd">
<svg version="1.1" id="Layer_1" xmlns="http://www.w3.org/2000/svg" xmlns:xlink="http://www.w3.org/1999/xlink" x="0px" y="0px"
	 width="705.572px" height="212.99px" viewBox="0 0 705.572 212.99" enable-background="new 0 0 705.572 212.99"
	 xml:space="preserve">
<g>
	<defs>
		<rect id="SVGID_1_" x="-45" y="-47.096" width="792" height="324"/>
	</defs>
	<clipPath id="SVGID_2_">
		<use xlink:href="#SVGID_1_"  overflow="visible"/>
	</clipPath>
	<path clip-path="url(#SVGID_2_)" fill="#FFFFFF" d="M370.443,114.178h28.73c6.489,0,11.425,0.536,14.816,1.489
		c4.592,1.347,8.505,3.755,11.771,7.166c3.277,3.467,5.757,7.649,7.436,12.626c1.651,5.009,2.503,11.166,2.503,18.453
		c0,6.398-0.773,11.966-2.326,16.555c-1.953,5.72-4.784,10.301-8.372,13.802c-2.743,2.692-6.419,4.713-11.011,6.21
		c-3.52,1.156-8.176,1.663-13.948,1.663h-29.599V114.178z M386.198,127.388v51.602h11.731c4.372,0,7.575-0.271,9.529-0.762
		c2.545-0.64,4.603-1.69,6.313-3.293c1.681-1.481,3.084-3.979,4.128-7.483c1.076-3.484,1.566-8.243,1.566-14.233
		c0-6.062-0.49-10.653-1.566-13.878c-1.044-3.23-2.544-5.724-4.443-7.588c-1.908-1.808-4.353-2.96-7.298-3.597
		c-2.204-0.53-6.503-0.768-12.853-0.768H386.198z"/>
	<path clip-path="url(#SVGID_2_)" fill="#FFFFFF" d="M445.95,153.678c0-7.986,1.167-14.613,3.544-19.978
		c1.787-3.936,4.211-7.546,7.27-10.709c3.062-3.157,6.444-5.503,10.097-7.02c4.835-2.05,10.414-3.053,16.763-3.053
		c11.47,0,20.685,3.555,27.565,10.646c6.849,7.162,10.332,17.041,10.332,29.766c0,12.548-3.417,22.399-10.27,29.52
		c-6.837,7.084-15.976,10.625-27.414,10.625c-11.577,0-20.784-3.525-27.626-10.625C449.373,175.785,445.95,166.053,445.95,153.678
		 M462.227,153.166c0,8.795,1.977,15.493,6.069,20.04c4.096,4.553,9.246,6.842,15.541,6.842c6.258,0,11.383-2.25,15.414-6.803
		c4.025-4.532,6.023-11.284,6.023-20.3c0-8.936-1.952-15.571-5.872-19.997c-3.897-4.381-9.099-6.61-15.565-6.61
		c-6.515,0-11.772,2.258-15.718,6.701C464.172,137.514,462.227,144.167,462.227,153.166"/>
	<polygon clip-path="url(#SVGID_2_)" fill="#FFFFFF" points="544.778,192.142 526.212,114.181 542.426,114.181 554.188,167.744 
		568.367,114.181 587.088,114.181 600.796,168.657 612.749,114.181 628.628,114.181 609.698,192.142 592.931,192.142 
		577.478,133.86 561.945,192.142 	"/>
	<path clip-path="url(#SVGID_2_)" fill="#FFFFFF" d="M632.567,166.765l15.345-1.479c0.924,5.167,2.801,8.914,5.608,11.329
		c2.822,2.407,6.625,3.628,11.386,3.628c5.063,0,8.92-1.037,11.521-3.225c2.543-2.153,3.82-4.624,3.82-7.532
		c0-1.829-0.496-3.434-1.582-4.714c-1.131-1.277-3.022-2.37-5.705-3.374c-1.821-0.605-6.044-1.789-12.604-3.391
		c-8.399-2.084-14.345-4.635-17.73-7.702c-4.818-4.254-7.188-9.491-7.188-15.662c0-3.955,1.091-7.71,3.38-11.117
		c2.246-3.471,5.512-6.098,9.716-7.915c4.24-1.777,9.377-2.694,15.327-2.694c9.796,0,17.159,2.116,22.096,6.406
		c4.91,4.299,7.518,9.996,7.785,17.204l-15.747,0.722c-0.689-3.997-2.118-6.943-4.338-8.68c-2.216-1.768-5.542-2.624-9.973-2.624
		c-4.53,0-8.102,0.975-10.71,2.847c-1.682,1.153-2.486,2.805-2.486,4.826c0,1.841,0.795,3.422,2.331,4.682
		c1.993,1.731,6.771,3.4,14.416,5.221c7.68,1.813,13.352,3.67,16.999,5.591c3.688,1.97,6.571,4.605,8.641,7.94
		c2.044,3.317,3.111,7.512,3.111,12.378c0,4.538-1.207,8.699-3.749,12.575c-2.455,3.919-5.928,6.819-10.48,8.733
		c-4.586,1.863-10.199,2.831-16.951,2.831c-9.866,0-17.452-2.271-22.743-6.828C636.802,182.158,633.662,175.509,632.567,166.765"/>
	<polygon clip-path="url(#SVGID_2_)" fill="#00A3E2" points="14.489,192.142 14.489,114.181 72.187,114.181 72.187,127.387 
		30.219,127.387 30.219,144.651 69.301,144.651 69.301,157.824 30.219,157.824 30.219,178.989 73.667,178.989 73.667,192.142 	"/>
	<path clip-path="url(#SVGID_2_)" fill="#00A3E2" d="M83.081,166.765l15.265-1.479c0.936,5.167,2.816,8.914,5.643,11.329
		c2.791,2.407,6.608,3.628,11.375,3.628c5.062,0,8.899-1.037,11.467-3.225c2.563-2.153,3.862-4.624,3.862-7.532
		c0-1.829-0.558-3.434-1.615-4.714c-1.102-1.277-2.983-2.37-5.647-3.374c-1.88-0.605-6.086-1.789-12.6-3.391
		c-8.435-2.084-14.346-4.635-17.76-7.702c-4.826-4.254-7.12-9.491-7.12-15.662c0-3.955,1.091-7.71,3.337-11.117
		c2.27-3.471,5.432-6.098,9.731-7.915c4.184-1.777,9.289-2.694,15.304-2.694c9.746,0,17.145,2.116,22.079,6.406
		c4.944,4.299,7.495,9.996,7.757,17.204l-15.735,0.722c-0.643-3.997-2.109-6.943-4.355-8.68c-2.185-1.768-5.517-2.624-9.94-2.624
		c-4.536,0-8.119,0.975-10.712,2.847c-1.627,1.153-2.458,2.805-2.458,4.826c0,1.841,0.747,3.422,2.32,4.682
		c1.965,1.731,6.791,3.4,14.422,5.221c7.687,1.813,13.319,3.67,17.029,5.591c3.667,1.97,6.498,4.605,8.595,7.94
		c2.035,3.317,3.112,7.512,3.112,12.378c0,4.538-1.297,8.699-3.704,12.575c-2.512,3.919-6.004,6.819-10.557,8.733
		c-4.567,1.863-10.177,2.831-17.004,2.831c-9.799,0-17.368-2.271-22.639-6.828C87.242,182.158,84.087,175.509,83.081,166.765"/>
	<polygon clip-path="url(#SVGID_2_)" fill="#00A3E2" points="170.644,192.142 152.033,114.181 168.211,114.181 179.927,167.744 
		194.174,114.181 212.945,114.181 226.609,168.657 238.55,114.181 254.392,114.181 235.522,192.142 218.786,192.142 203.256,133.86 
		187.769,192.142 	"/>
	<polygon clip-path="url(#SVGID_2_)" fill="#00A3E2" points="14,95.296 14,22.63 57.878,22.63 57.878,34.963 26.005,34.963 
		26.005,51.075 55.648,51.075 55.648,63.388 26.005,63.388 26.005,82.977 58.999,82.977 58.999,95.296 	"/>
	<polygon clip-path="url(#SVGID_2_)" fill="#FFFFFF" points="69.218,95.296 69.218,22.63 80.826,22.63 105.247,71.308 
		105.247,22.63 116.316,22.63 116.316,95.296 104.338,95.296 80.294,47.612 80.294,95.296 	"/>
	<polygon clip-path="url(#SVGID_2_)" fill="#FFFFFF" points="129.008,95.296 129.008,22.63 172.847,22.63 172.847,34.963 
		140.959,34.963 140.959,51.075 170.619,51.075 170.619,63.388 140.959,63.388 140.959,82.977 173.99,82.977 173.99,95.296 	"/>
	<path clip-path="url(#SVGID_2_)" fill="#FFFFFF" d="M184.148,95.295V22.631h25.177c6.311,0,10.881,0.648,13.758,1.941
		c2.825,1.326,5.141,3.632,6.874,6.978c1.706,3.324,2.59,7.152,2.59,11.463c0,5.436-1.298,9.946-3.889,13.476
		c-2.591,3.581-6.525,5.81-11.677,6.739c2.616,1.86,4.728,3.889,6.387,6.094c1.671,2.221,3.903,6.164,6.789,11.8l7.234,14.173
		h-14.308l-8.596-15.786c-3.09-5.69-5.162-9.224-6.295-10.69c-1.133-1.488-2.367-2.492-3.609-3.024
		c-1.285-0.566-3.258-0.824-6.039-0.824h-2.401v30.324H184.148z M196.144,53.335h8.811c5.696,0,9.257-0.294,10.682-0.885
		c1.431-0.58,2.546-1.594,3.349-3.056c0.782-1.454,1.221-3.282,1.221-5.466c0-2.404-0.508-4.382-1.562-5.88
		c-1.048-1.496-2.608-2.442-4.493-2.845c-1.014-0.17-3.911-0.242-8.74-0.242h-9.268V53.335z"/>
	<path clip-path="url(#SVGID_2_)" fill="#FFFFFF" d="M271.494,68.667V56.332h25.648v28.93c-2.496,2.991-6.148,5.605-10.876,7.88
		c-4.744,2.256-9.525,3.399-14.412,3.399c-6.186,0-11.602-1.603-16.17-4.771c-4.629-3.185-8.091-7.75-10.364-13.681
		c-2.336-5.914-3.492-12.385-3.492-19.358c0-7.571,1.275-14.303,3.865-20.183c2.565-5.881,6.372-10.391,11.365-13.528
		c3.733-2.428,8.485-3.632,14.179-3.632c7.327,0,13.073,1.892,17.152,5.697c4.219,3.775,6.83,9.02,8.042,15.711l-11.844,2.727
		c-0.84-3.577-2.43-6.389-4.703-8.467c-2.333-2.046-5.202-3.084-8.638-3.084c-5.231,0-9.356,2.032-12.502,6.112
		c-3.06,4.032-4.559,10.054-4.559,18.042c0,8.62,1.527,15.084,4.637,19.4c3.17,4.283,7.249,6.44,12.333,6.44
		c2.503,0,5.019-0.59,7.539-1.791c2.519-1.2,4.71-2.648,6.467-4.373v-9.134H271.494z"/>
	<rect x="307.806" y="22.631" clip-path="url(#SVGID_2_)" fill="#FFFFFF" width="12.001" height="72.668"/>
	<path clip-path="url(#SVGID_2_)" fill="#FFFFFF" d="M384.557,95.296h-12.874l-5.124-16.522h-23.643l-4.873,16.522h-12.865
		l22.814-72.667h12.79L384.557,95.296z M362.631,66.461l-8.169-26.845l-7.935,26.845H362.631z"/>
	<path clip-path="url(#SVGID_2_)" fill="#00A3E2" d="M407.775,71.731l11.57-1.4c0.709,4.771,2.127,8.301,4.314,10.546
		c2.091,2.221,5.01,3.337,8.657,3.337c3.859,0,6.789-0.971,8.779-2.963c1.96-2.013,2.899-4.342,2.899-7.044
		c0-1.706-0.353-3.138-1.165-4.348c-0.886-1.217-2.284-2.262-4.349-3.16c-1.356-0.597-4.578-1.663-9.55-3.192
		c-6.389-1.95-10.916-4.351-13.479-7.18c-3.666-4.025-5.457-8.895-5.457-14.656c0-3.706,0.848-7.169,2.584-10.384
		c1.706-3.205,4.138-5.662,7.39-7.359c3.171-1.672,7.068-2.522,11.588-2.522c7.41,0,13.035,2.004,16.745,6.005
		c3.789,4.019,5.739,9.37,5.953,16.078l-11.972,0.529c-0.505-3.72-1.588-6.389-3.316-8.014c-1.639-1.651-4.157-2.479-7.499-2.479
		c-3.473,0-6.144,0.896-8.107,2.636c-1.266,1.116-1.889,2.628-1.889,4.509c0,1.703,0.623,3.175,1.753,4.402
		c1.516,1.557,5.185,3.179,10.997,4.86c5.78,1.675,10.097,3.439,12.847,5.251c2.808,1.797,4.965,4.265,6.586,7.371
		c1.55,3.151,2.292,6.993,2.292,11.602c0,4.18-0.857,8.088-2.78,11.723c-1.879,3.639-4.604,6.341-8.028,8.105
		c-3.449,1.77-7.76,2.655-12.869,2.655c-7.532,0-13.297-2.129-17.302-6.365C410.936,86.032,408.508,79.863,407.775,71.731"/>
	<path clip-path="url(#SVGID_2_)" fill="#FFFFFF" d="M463.703,59.445c0-7.444,0.917-13.639,2.711-18.654
		c1.362-3.701,3.132-7.023,5.493-9.951c2.363-2.973,4.873-5.143,7.623-6.558c3.669-1.923,7.966-2.879,12.778-2.879
		c8.688,0,15.678,3.302,20.877,9.976c5.229,6.6,7.833,15.864,7.833,27.693c0,11.748-2.566,20.9-7.718,27.543
		c-5.247,6.617-12.158,9.926-20.866,9.926c-8.795,0-15.77-3.289-20.934-9.885C466.294,80.067,463.703,71.014,463.703,59.445
		 M476.023,58.917c0,8.224,1.55,14.471,4.656,18.696c3.084,4.24,7.03,6.372,11.755,6.372c4.746,0,8.621-2.112,11.679-6.327
		c3.076-4.206,4.585-10.517,4.585-18.924c0-8.309-1.481-14.534-4.446-18.621c-2.998-4.076-6.906-6.141-11.817-6.141
		c-4.938,0-8.902,2.075-11.856,6.219C477.529,44.328,476.023,50.595,476.023,58.917"/>
	<polygon clip-path="url(#SVGID_2_)" fill="#FFFFFF" points="530.825,95.296 530.825,23.248 542.772,23.248 542.772,82.977 
		572.564,82.977 572.564,95.296 	"/>
	<path clip-path="url(#SVGID_2_)" fill="#FFFFFF" d="M634.336,95.296h-12.859l-5.131-16.522h-23.591l-4.862,16.522h-12.854
		l22.755-72.667h12.825L634.336,95.296z M612.414,66.461l-8.186-26.845l-7.861,26.845H612.414z"/>
	<path clip-path="url(#SVGID_2_)" fill="#FFFFFF" d="M640.869,95.295V22.631h25.099c6.363,0,10.958,0.648,13.796,1.941
		c2.852,1.326,5.206,3.632,6.911,6.978c1.703,3.324,2.585,7.152,2.585,11.463c0,5.436-1.309,9.946-3.9,13.476
		c-2.643,3.581-6.467,5.81-11.666,6.739c2.608,1.86,4.721,3.889,6.406,6.094c1.658,2.221,3.923,6.164,6.782,11.8l7.21,14.173
		h-14.277l-8.593-15.786c-3.072-5.69-5.168-9.224-6.315-10.69c-1.139-1.488-2.33-2.492-3.614-3.024
		c-1.234-0.566-3.28-0.824-6.03-0.824h-2.418v30.324H640.869z M652.844,53.335h8.812c5.733,0,9.281-0.294,10.676-0.885
		c1.461-0.58,2.59-1.594,3.366-3.056c0.846-1.454,1.229-3.282,1.229-5.466c0-2.404-0.561-4.382-1.604-5.88
		c-1.066-1.496-2.592-2.442-4.487-2.845c-0.976-0.17-3.859-0.242-8.694-0.242h-9.297V53.335z"/>
	<rect x="261.129" y="114.18" clip-path="url(#SVGID_2_)" fill="#FFFFFF" width="15.75" height="77.961"/>
	<polygon clip-path="url(#SVGID_2_)" fill="#FFFFFF" points="291.957,192.142 291.957,114.181 307.277,114.181 339.297,166.339 
		339.297,114.181 353.824,114.181 353.824,192.142 338.1,192.142 306.537,141.195 306.537,192.142 	"/>
</g>
</svg>
