<?xml version="1.0" encoding="UTF-8"?>
<svg width="20px" height="17px" viewBox="0 0 20 17" version="1.1" xmlns="http://www.w3.org/2000/svg" xmlns:xlink="http://www.w3.org/1999/xlink">
    <!-- Generator: Sketch 48.1 (47250) - http://www.bohemiancoding.com/sketch -->
    <title>Page 1</title>
    <desc>Created with Sketch.</desc>
    <defs></defs>
    <g id="ESW-Products" stroke="none" stroke-width="1" fill="none" fill-rule="evenodd" transform="translate(-183.000000, -1357.000000)">
        <g id="Page-1" transform="translate(183.000000, 1357.000000)" fill="#009BDD">
            <path d="M6.56382609,11.0742474 C6.756,12.4431947 6.94730435,13.8130368 7.14556522,15.2294053 C7.01252174,15.1730368 6.92121739,15.1354579 6.77078261,15.0728263 C6.75686957,15.3743526 6.74295652,15.6615632 6.72904348,15.9487737 C6.71078261,15.9541421 6.6933913,15.9586158 6.67513043,15.9630895 C6.02556522,14.2970895 5.37686957,12.6310895 4.73078261,10.9722474 C4.29686957,11.0697737 3.89426087,11.2030895 3.48295652,11.2451421 C2.33078261,11.3650368 1.26382609,11.1154053 0.511652174,10.1347737 C-0.224,9.17472105 -0.0900869565,8.08045789 0.432521739,7.09714211 C0.75773913,6.48424737 1.32295652,6.01003684 1.77426087,5.46782632 C1.86817391,5.35508947 2.00382609,5.2173 2.00382609,5.09024737 C2.00121739,3.66761579 2.76208696,2.79793158 3.93773913,2.29956316 C4.40469565,2.10093158 4.95686957,2.12419474 5.46817391,2.03024737 C5.60121739,2.00608947 5.76469565,1.95687895 5.84643478,1.85756316 C7.81686957,-0.543910526 11.3751304,-0.634278947 13.4655652,1.68756316 C13.6986087,1.94614211 13.9064348,2.05172105 14.2586087,2.0383 C15.7125217,1.98193158 17.0733913,3.0073 17.4125217,4.36014211 C17.4325217,4.43887895 17.4664348,4.52566842 17.4507826,4.59903684 C17.3186087,5.21819474 17.6742609,5.55014211 18.082087,5.90445789 C18.9446957,6.65603684 19.4490435,7.60624737 19.436,8.81772105 C19.4246957,9.85382632 18.9168696,10.5320368 18.0629565,10.9659842 C16.9403478,11.5368263 15.8073043,11.4357211 14.6212174,10.9454053 C14.0107826,12.4279842 13.4012174,13.9078789 12.7655652,15.4530895 C12.7351304,15.2956158 12.7168696,15.2016684 12.6942609,15.0844579 C12.5777391,15.1435105 12.4673043,15.1998789 12.2951304,15.2875632 C12.5864348,13.9955632 12.8646957,12.7617211 13.142087,11.5278789 L13.0629565,11.5037211 C12.6029565,12.7286158 12.0951304,13.9365105 11.7003478,15.1828789 C11.4733913,15.8977737 10.9907826,16.2449316 10.3907826,16.5965632 C10.202087,14.5440368 10.016,12.5228263 9.83078261,10.5016158 C9.80730435,10.5025105 9.78382609,10.5043 9.76034783,10.5051947 C9.53513043,12.5111947 9.30991304,14.5171947 9.07686957,16.5929842 C8.65513043,16.2780368 8.19686957,16.1268263 8.02556522,15.5264579 C7.59947826,14.0313526 7.10469565,12.5577211 6.63773913,11.0751421 C6.61252174,11.0751421 6.58817391,11.0742474 6.56382609,11.0742474" id="Fill-1"></path>
        </g>
    </g>
</svg>