<?xml version="1.0" encoding="UTF-8"?>
<svg width="20px" height="20px" viewBox="0 0 20 20" version="1.1" xmlns="http://www.w3.org/2000/svg" xmlns:xlink="http://www.w3.org/1999/xlink">
    <!-- Generator: Sketch 48.1 (47250) - http://www.bohemiancoding.com/sketch -->
    <title>Page 1</title>
    <desc>Created with Sketch.</desc>
    <defs></defs>
    <g id="ESW-Products" stroke="none" stroke-width="1" fill="none" fill-rule="evenodd" transform="translate(-183.000000, -1327.000000)">
        <g id="Page-1" transform="translate(183.000000, 1327.000000)" fill="#009BDD">
            <g id="Group-3" transform="translate(10.000000, 0.513091)">
                <path d="M9.30445455,14.2833636 C8.93263636,14.6879091 8.53809091,14.6951818 8.08445455,14.3997273 C7.56536364,14.0624545 7.02263636,13.7633636 6.42718182,13.4106364 C6.42718182,13.8906364 6.41718182,14.3060909 6.42990909,14.7206364 C6.44718182,15.2906364 6.24718182,15.6279091 5.80172727,15.6424545 C5.25354545,15.6606364 5.21627273,15.2260909 5.17445455,14.8315455 C5.10718182,14.2124545 5.059,13.5915455 4.99172727,12.9724545 C4.96990909,12.7660909 4.95627273,12.5633636 4.71809091,12.437 C3.77809091,11.9388182 2.849,11.4197273 1.82627273,10.8588182 C1.82627273,12.0442727 1.82354545,13.1515455 1.829,14.2588182 C1.82990909,14.4479091 2.00990909,14.5097273 2.13445455,14.6024545 C2.69081818,15.017 3.24263636,15.4379091 3.81172727,15.8342727 C4.18536364,16.0933636 4.13263636,16.4179091 3.95081818,16.7197273 C3.76263636,17.0315455 3.45263636,17.0197273 3.15445455,16.8497273 C2.77172727,16.6324545 2.39263636,16.407 1.91081818,16.1260909 C1.91081818,16.8460909 1.90718182,17.4733636 1.91263636,18.0997273 C1.91536364,18.447 1.81627273,18.7288182 1.47990909,18.8879091 C1.00627273,19.1124545 0.565363636,18.8779091 0.504454545,18.3588182 C0.489909091,18.2360909 0.499,18.1097273 0.499,17.9851818 C0.499,12.4851818 0.499,6.98518182 0.499909091,1.48427273 C0.499909091,1.25518182 0.473545455,1.02245455 0.594454545,0.807 C0.744454545,0.538818182 0.938090909,0.322454545 1.27172727,0.419727273 C1.58809091,0.510636364 1.849,0.666090909 1.82718182,1.08427273 C1.79536364,1.68881818 1.81354545,2.29427273 1.79718182,2.89972727 C1.78990909,3.18063636 1.87536364,3.267 2.13263636,3.11427273 C2.42172727,2.94245455 2.71809091,2.78063636 3.00263636,2.60063636 C3.43627273,2.32518182 3.82536364,2.35245455 4.03718182,2.68609091 C4.23627273,3.00063636 4.10809091,3.41336364 3.70990909,3.68427273 C3.18081818,4.04518182 2.649,4.40063636 2.10990909,4.747 C1.91718182,4.87063636 1.79718182,4.99518182 1.80627273,5.25245455 C1.83809091,6.19518182 1.85536364,7.13790909 1.85809091,8.08154545 C1.859,8.45154545 1.98445455,8.45609091 2.26445455,8.29972727 C3.05718182,7.85972727 3.85627273,7.43063636 4.65990909,7.00972727 C4.85536364,6.907 4.93718182,6.77881818 4.95718182,6.55790909 C5.02627273,5.797 5.11718182,5.037 5.19990909,4.277 C5.24354545,3.87518182 5.45718182,3.64972727 5.87172727,3.69427273 C6.22445455,3.73154545 6.47354545,3.897 6.45172727,4.31154545 C6.43081818,4.71972727 6.43445455,5.13063636 6.40718182,5.53881818 C6.38354545,5.887 6.50809091,5.89336364 6.76445455,5.737 C7.17354545,5.48790909 7.58263636,5.23063636 8.01172727,5.01881818 C8.44354545,4.80518182 8.89445455,4.73245455 9.30445455,5.09609091 L9.30445455,5.52336364 C8.77354545,6.27518182 7.82081818,6.44790909 7.13809091,7.06790909 C7.59718182,7.32336364 8.01354545,7.56154545 8.43627273,7.78609091 C8.74627273,7.95154545 8.82263636,8.16881818 8.66445455,8.48881818 C8.43445455,8.95245455 8.159,9.07154545 7.66627273,8.85790909 C7.24263636,8.67427273 6.80081818,8.50518182 6.42172727,8.24881818 C5.82627273,7.84518182 5.329,7.88609091 4.74809091,8.30790909 C4.07172727,8.79972727 3.32445455,9.19336364 2.52990909,9.677 C3.49990909,10.2742727 4.38445455,10.8006364 5.24627273,11.3606364 C5.54536364,11.5542727 5.769,11.5388182 6.06627273,11.3660909 C6.66354545,11.0188182 7.24263636,10.6242727 7.94263636,10.4906364 C8.20627273,10.4397273 8.45990909,10.4606364 8.61445455,10.6897273 C8.77809091,10.9315455 8.64354545,11.167 8.50172727,11.3806364 C8.35990909,11.5933636 8.159,11.7388182 7.93809091,11.8588182 C7.67354545,12.0033636 7.40809091,12.1460909 7.09990909,12.3142727 C7.84172727,12.8297273 8.66263636,13.1560909 9.30445455,13.7488182 L9.30445455,14.2833636 Z" id="Fill-1"></path>
            </g>
            <path d="M1.241,5.72218182 C1.69736364,5.66036364 2.09463636,5.90672727 2.52736364,5.97490909 C2.86827273,6.02854545 3.19281818,6.03763636 3.52827273,5.954 C4.48554545,5.71490909 4.74281818,5.42036364 4.77372727,4.45036364 C4.79190909,3.86490909 4.821,3.27672727 4.73281818,2.694 C4.71827273,2.59763636 4.60918182,2.49036364 4.74736364,2.42127273 C4.851,2.36945455 4.94736364,2.43127273 5.031,2.51218182 C5.40190909,2.87036364 5.78281818,3.20945455 6.28463636,3.39309091 C7.51645455,3.84490909 8.13009091,3.63218182 8.75190909,2.49672727 C8.95190909,2.13127273 9.12554545,1.75036364 9.40463636,1.38854545 C9.40463636,2.33490909 9.401,3.28127273 9.40645455,4.22763636 C9.40827273,4.53945455 9.18554545,4.48854545 8.99918182,4.50581818 C6.501,4.72945455 4.43190909,6.35854545 3.71281818,8.73854545 C2.87463636,11.5112727 4.13281818,15.4403636 8.31918182,16.2585455 C8.441,16.2821818 8.56736364,16.2858182 8.691,16.2903636 C9.451,16.3149091 9.44736364,16.314 9.45190909,17.0985455 C9.45554545,17.934 9.46736364,18.7685455 9.47554545,19.604 L9.36918182,19.604 C9.18190909,19.0449091 8.92009091,18.5230909 8.571,18.0485455 C8.00736364,17.2821818 7.41463636,17.1158182 6.52009091,17.4585455 C6.03190909,17.6467273 5.61190909,17.944 5.21554545,18.2776364 C5.10554545,18.3703636 4.98645455,18.4967273 4.84281818,18.4067273 C4.69554545,18.3158182 4.85009091,18.1867273 4.86009091,18.074 C4.89009091,17.7376364 4.93645455,17.4012727 4.94918182,17.064 C5.00281818,15.6249091 4.32736364,15.0376364 2.94372727,14.9276364 C2.46281818,14.8894545 1.99281818,15.0121818 1.44009091,15.1312727 C1.79645455,14.6249091 2.15372727,14.2103636 2.39736364,13.7221818 C2.90554545,12.704 2.74190909,11.994 1.84009091,11.2930909 C1.32554545,10.8921818 0.739181818,10.6503636 9.09090909e-05,10.4676364 C0.471909091,10.2667273 0.859181818,10.1185455 1.23190909,9.94036364 C2.88281818,9.15218182 3.12554545,7.98218182 1.941,6.58672727 C1.70190909,6.30490909 1.41918182,6.05490909 1.25190909,5.71490909 L1.241,5.72218182 Z" id="Fill-4"></path>
            <path d="M9.39427273,10.5109091 C9.39427273,11.9172727 9.39245455,13.3236364 9.39609091,14.73 C9.397,14.9781818 9.41790909,15.17 9.04336364,15.13 C5.67336364,14.7690909 4.28518182,11.5609091 4.88063636,9.24818182 C5.33881818,7.47272727 7.23336364,5.96727273 9.05609091,5.81454545 C9.397,5.78636364 9.38609091,5.95272727 9.38518182,6.18545455 C9.38154545,7.62727273 9.38336364,9.06909091 9.38336364,10.5109091 L9.39427273,10.5109091 Z" id="Fill-6"></path>
        </g>
    </g>
</svg>